<svg xmlns="http://www.w3.org/2000/svg" viewBox="0 0 1200 630" role="img" aria-labelledby="title desc">
  <title id="title">AnySee social preview</title>
  <desc id="desc">AnySee launch preview with a macOS attention feed mockup.</desc>
  <rect width="1200" height="630" fill="#f8fbf3"/>
  <path d="M0 0h1200v630H0z" fill="#f8fbf3"/>
  <path d="M0 540c170-65 275-50 430-12 155 37 290 60 470-28 130-64 218-76 300-58v188H0z" fill="#edf4e7"/>
  <circle cx="1010" cy="116" r="132" fill="#2357d6" opacity=".15"/>
  <circle cx="1040" cy="500" r="150" fill="#0b8758" opacity=".15"/>
  <g transform="translate(84 82)">
    <rect width="72" height="72" rx="16" fill="#151815"/>
    <circle cx="36" cy="36" r="20" fill="none" stroke="#f8fbf3" stroke-width="6"/>
    <circle cx="48" cy="22" r="8" fill="#ef6a2e"/>
    <path d="M36 16a20 20 0 0 1 18 10" fill="none" stroke="#9ee4b9" stroke-width="6" stroke-linecap="round"/>
  </g>
  <text x="84" y="242" fill="#151815" font-family="Optima, Georgia, serif" font-size="82" font-weight="800">AnySee</text>
  <text x="84" y="318" fill="#151815" font-family="Optima, Georgia, serif" font-size="60" font-weight="800">One quiet menu bar for</text>
  <text x="84" y="386" fill="#151815" font-family="Optima, Georgia, serif" font-size="60" font-weight="800">signals worth noticing.</text>
  <text x="88" y="452" fill="#5c665a" font-family="Avenir Next, Trebuchet MS, sans-serif" font-size="30">Local-first macOS attention center.</text>
  <g transform="translate(720 132)">
    <rect x="0" y="0" width="400" height="360" rx="10" fill="#fff" stroke="#d8e1d0" stroke-width="2"/>
    <rect x="24" y="26" width="150" height="18" rx="4" fill="#151815"/>
    <circle cx="356" cy="34" r="12" fill="none" stroke="#2357d6" stroke-width="4"/>
    <g transform="translate(24 74)">
      <rect width="352" height="74" rx="8" fill="#fff" stroke="#d8e1d0"/>
      <circle cx="22" cy="24" r="8" fill="#c93f35"/>
      <rect x="44" y="18" width="138" height="12" rx="3" fill="#151815"/>
      <rect x="44" y="42" width="210" height="10" rx="3" fill="#5c665a" opacity=".72"/>
    </g>
    <g transform="translate(24 162)">
      <rect width="352" height="74" rx="8" fill="#fff" stroke="#d8e1d0"/>
      <circle cx="22" cy="24" r="8" fill="#ef6a2e"/>
      <rect x="44" y="18" width="170" height="12" rx="3" fill="#151815"/>
      <rect x="44" y="42" width="230" height="10" rx="3" fill="#5c665a" opacity=".72"/>
    </g>
    <g transform="translate(24 250)">
      <rect width="352" height="74" rx="8" fill="#edf4e7" stroke="#d8e1d0"/>
      <circle cx="22" cy="24" r="8" fill="#0b8758"/>
      <rect x="44" y="18" width="224" height="12" rx="3" fill="#151815"/>
      <rect x="44" y="42" width="190" height="10" rx="3" fill="#5c665a" opacity=".72"/>
    </g>
  </g>
</svg>
